Animals United (2010) PAL HQ Ac3 DD5.1 (Externe Subs) 

Konferenz der Tiere, Die (2010) 

###################################



Duitsland
Animatie / Familie
92 minuten

geregisseerd door Reinhard Klooss en Holger Tappe
met de stemmen van Oliver Kalkofe, Christoph Maria Herbst en Bastian Pastewka

De dieren in de Afrikaanse savanne vragen zich al een tijdje af waar het water gebleven is. Het had al lang moeten komen, door een kloof vanuit de verre bergen. De dorst wordt steeds groter, de zorgen ook, gezien het feit dat de laatste plas water verdedigd wordt door felle buffels en kwade neushoorns. Het dappere kleine stokstaartje Billy en de vredelievende leeuw Socrates, trekken erop uit om water te zoeken. Daarbij ontmoeten ze ook de Gallische haan Charles, die een ijsbeer, een kangoeroe, een Tasmaanse Duivel en twee Galapagos schildpadden, allen naar Afrika leidde. Ze moesten vanuit hun geboorteplaatsen vluchten naar Afrika en hopen om in de Okavango-Delta een beter leven te leiden. Maar helaas hebben de mensen zelfs dit laatste stukje paradijs niet gespaard. De hotelier Smith heeft beslist om een enorme dam te bouwen en het opgespaarde water te gebruiken voor zijn luxehotel...


English
A group of animals waiting for the annual flood they rely on for food and water discover that the humans, who have been destroying their habitats have built a dam for a leisure resort. The animals endeavor to save the delta and send a message to the humans not to interfere with nature.





SOURCE..........: Animals United PAL DVDR-SCREAM
SIZE............: 1.45GB
FORM............: AVI
VIDEO CODEC.....: XVID 
BITRATE.........: 1888 Kbit/s
WIDTH & HEIGHT..: 720 X 320
FRAMES/S........: 25.000 Fps
AUDIO...........: English
AUDIO CODE......: AC3
BITRATE.........: 448kbps
CHANNELS........: 5
SAMPLING........: 48.0 kHz
Subtitles.......: Dutch/English srt





Trailer for Animals United (2011)


Covers and labels:


  Category : Video 
  Format : DVD5 
  Source : Retail 
  Genre : Animation Family  
  Language : English audio  
 
  Weblink :  http://www.moviemeter.nl/film/66994 
  Weblink :  http://www.imdb.com/title/tt1620449

TBS

MEIDA INFO

General
Complete name                    : Animals United (2010) PAL HQ Ac3 DD5.1 (Externe Subs) TBS\MOVIE\Animals_United_(2010).avi
Format                           : DivX
Format/Info                      : Hack of AVI
File size                        : 1.46 GiB
Duration                         : 1h 29mn
Overall bit rate                 : 2 336 Kbps

Video
ID                               : 0
Format                           : MPEG-4 Visual
Format profile                   : Advanced Simple@L5
Format settings, BVOP            : Yes
Format settings, QPel            : No
Format settings, GMC             : No warppoints
Format settings, Matrix          : Default (H.263)
Muxing mode                      : Packed bitstream
Codec ID                         : DX50
Codec ID/Hint                    : DivX 5
Duration                         : 1h 29mn
Bit rate                         : 1 879 Kbps
Width                            : 720 pixels
Height                           : 320 pixels
Display aspect ratio             : 2.25:1
Frame rate                       : 25.000 fps
Color space                      : YUV
Chroma subsampling               : 4:2:0
Bit depth                        : 8 bits
Scan type                        : Progressive
Bits/(Pixel*Frame)               : 0.326
Stream size                      : 1.17 GiB (80%)
Title                            : Video 
Writing library                  : XviD 62

Audio
ID                               : 1
Format                           : AC-3
Format/Info                      : Audio Coding 3
Mode extension                   : CM (complete main)
Codec ID                         : 2000
Duration                         : 1h 29mn
Bit rate mode                    : Constant
Bit rate                         : 448 Kbps
Channel(s)                       : 6 channels
Channel positions                : Front: L C R, Side: L R, LFE
Sampling rate                    : 48.0 KHz
Bit depth                        : 16 bits
Stream size                      : 286 MiB (19%)
Alignment                        : Split accross interleaves
Interleave, duration             : 40 ms (1.00 video frame)
Interleave, preload duration     : 500 ms
Title                            : Audio 

 